P3
# antf1.ppm
13 13
65535
65534 65534 65534
65534 65534 65534
65534 65534 65534
65534 65534 65534
65534 65534 65534
65535 65535 65535
65535 65535 65535
65535 65535 65535
0 0 0
65535 0 0
65535 42405 0
65535 65535 65535
65534 65534 65534
65534 65534 65534
65534 65534 65534
65534 65534 65534
65535 65535 65535
65535 65535 65535
65534 65534 65534
65535 65535 65535
0 0 0
65535 0 0
65535 42405 0
65535 65535 0
65535 65535 0
65535 65535 65535
65534 65534 65534
65534 65534 65534
65534 65534 65534
65535 65535 65535
65535 65535 65535
0 0 0
65534 65534 65534
65535 0 0
65535 42405 0
65535 65535 0
65535 65535 0
65535 42405 0
65535 0 0
65534 65534 65534
65534 65534 65534
65534 65534 65534
65534 65534 65534
65535 65535 65535
0 0 0
65535 65535 65535
65535 0 0
65535 42405 0
65535 65535 0
65535 42405 0
65535 42405 0
65535 0 0
65534 65534 65534
65534 65534 65534
65534 65534 65534
65535 65535 65535
65535 65535 65535
42405 10794 10794
65535 65535 65535
65535 0 0
65535 0 0
65535 42405 0
65535 42405 0
65535 0 0
0 0 0
65534 65534 65534
65534 65534 65534
0 0 0
0 0 0
42405 10794 10794
42405 10794 10794
42405 10794 10794
0 0 0
65535 0 0
65535 0 0
65535 0 0
0 0 0
65534 65534 65534
65534 65534 65534
65534 65534 65534
65534 65534 65534
65534 65534 65534
65534 65534 65534
42405 10794 10794
0 0 0
42405 10794 10794
65535 65535 65535
65535 65535 65535
65534 65534 65534
65534 65534 65534
65534 65534 65534
65534 65534 65534
0 0 0
0 0 0
42405 10794 10794
42405 10794 10794
0 0 0
42405 10794 10794
42405 10794 10794
42405 10794 10794
0 0 0
0 0 0
65534 65534 65534
65534 65534 65534
65534 65534 65534
65534 65534 65534
65534 65534 65534
65535 65535 65535
42405 10794 10794
42405 10794 10794
65535 65535 65535
42405 10794 10794
65535 65535 65535
65534 65534 65534
65535 65535 65535
65535 65535 65535
65535 65535 65535
65534 65534 65534
65534 65534 65534
42405 10794 10794
0 0 0
65534 65534 65534
42405 10794 10794
65535 65535 65535
0 0 0
65535 65535 65535
65534 65534 65534
65534 65534 65534
65534 65534 65534
65534 65534 65534
65534 65534 65534
42405 10794 10794
0 0 0
42405 10794 10794
65534 65534 65534
42405 10794 10794
65534 65534 65534
0 0 0
65534 65534 65534
65534 65534 65534
65534 65534 65534
65534 65534 65534
65534 65534 65534
65534 65534 65534
42405 10794 10794
42405 10794 10794
65534 65534 65534
65535 65535 65535
42405 10794 10794
65534 65534 65534
65534 65534 65534
65534 65534 65534
65535 65535 65535
65535 65535 65535
65534 65534 65534
65534 65534 65534
65534 65534 65534
65534 65534 65534
65534 65534 65534
65534 65534 65534
65535 65535 65535
65535 65535 65535
65535 65535 65535
65535 65535 65535
65535 65535 65535
65535 65535 65535
65535 65535 65535
65534 65534 65534
65534 65534 65534
